<?xml version="1.0" encoding="UTF-8"?>
<svg aria-role="none" version="1.1" xmlns="http://www.w3.org/2000/svg" width="100" height="51">
    <defs>
        <symbol id="top-left" viewBox="0 0 125 73">
            <path d="M 0,0 H 125 C 72.598055,10.534631 98.371271,28.143336 63.153217,37.125639 36.667874,40.62239 17.158167,54.527705 0,73 Z" style="fill:currentColor"/>
        </symbol>
        <symbol id="logo" viewBox="0 0 125 73">
            <path d="M 67.597914,22.567318 H 56.212893 v -6.439959 h 11.385021 z" fill="currentColor" style="stroke-width:.26458"/>
            <path d="m 67.621726,16.201443 h 1.920875 v 6.352646 h -1.920875 z m -13.332354,0 h 1.920875 v 6.365875 h -1.920875 z m 1.920875,6.360583 H 67.61908 v 1.944688 H 56.210247 Z" fill="none" stroke="currentColor" stroke-miterlimit="3.8637" stroke-width=".14684"/>
            <path d="m 31.400268,13.330714 v 1.143 c 0,0.320145 -0.11377,0.529166 -0.362479,0.664104 a 0.90487499,0.90487499 0 0 1 -0.418041,0.103187 c -0.433917,0 -0.756709,-0.288396 -0.756709,-0.679979 v -1.227667 h -0.224896 v -0.111125 h 0.714375 v 0.111125 h -0.224895 v 1.135063 c 0,0.362479 0.211666,0.600604 0.545041,0.600604 0.341313,0 0.574146,-0.243417 0.574146,-0.60325 v -1.132417 h -0.224896 v -0.111125 h 0.60325 v 0.111125 h -0.224896 z m 2.119313,1.899708 -1.153583,-1.582208 v 1.439333 h 0.230187 v 0.111125 h -0.605896 v -0.111125 h 0.227542 v -1.643063 l -0.08202,-0.11377 h -0.206375 v -0.111125 h 0.433917 l 1.100666,1.505479 v -1.394354 h -0.230187 v -0.111125 h 0.60325 v 0.111125 h -0.224896 v 1.899708 z m 0.896937,-0.142875 v -1.756833 h -0.224896 v -0.111125 h 0.714375 v 0.111125 h -0.224895 v 1.756833 h 0.224895 v 0.111125 h -0.714375 v -0.111125 z m 1.648354,0.161396 -0.756708,-1.918229 h -0.177271 v -0.111125 h 0.743479 v 0.111125 h -0.280458 l 0.582083,1.471083 0.574146,-1.471083 h -0.195791 v -0.111125 h 0.513291 v 0.111125 h -0.150812 l -0.751417,1.918229 z m 1.452563,-0.161396 v -1.756833 h -0.227542 v -0.111125 h 1.198563 v -0.08467 h 0.137583 v 0.47625 h -0.134937 v -0.254 h -0.71173 v 0.767292 h 0.568855 v -0.224896 l 0.137583,-0.0026 v 0.590021 l -0.137583,0.0026 v -0.230188 h -0.568855 v 0.804333 h 0.738188 v -0.264583 h 0.140229 v 0.399521 h -1.367896 v -0.111125 z m 2.997729,0.111125 c -0.177271,0 -0.209021,-0.01852 -0.309562,-0.177271 l -0.447146,-0.711729 h -0.235479 v 0.777875 h 0.224895 v 0.111125 h -0.714375 v -0.111125 h 0.224896 v -1.759479 h -0.224896 v -0.111125 h 0.833438 c 0.291042,0 0.455083,0.08202 0.545042,0.267229 a 0.60854166,0.60854166 0 0 1 0.06085,0.267229 c 0,0.291042 -0.161396,0.47625 -0.449792,0.518583 l 0.431271,0.66675 c 0.07144,0.111125 0.119062,0.148167 0.195792,0.148167 h 0.116416 v 0.113771 z m -0.709083,-1.8415 h -0.280459 v 0.814917 h 0.288396 c 0.227542,0 0.386292,-0.169334 0.386292,-0.41275 -0.0026,-0.259292 -0.142875,-0.402167 -0.394229,-0.402167 z m 1.854729,1.881187 c -0.187854,0 -0.312208,-0.03969 -0.463021,-0.134937 V 15.22513 H 41.05756 v -0.53975 h 0.140229 v 0.238125 c 0.182563,0.124354 0.264583,0.153459 0.396875,0.153459 0.240771,0 0.402167,-0.127 0.402167,-0.314855 0,-0.171979 -0.116417,-0.296333 -0.441854,-0.465666 -0.378355,-0.198438 -0.508,-0.34925 -0.508,-0.592667 0,-0.296333 0.251354,-0.518583 0.59002,-0.518583 0.150813,0 0.261938,0.02646 0.357188,0.08467 V 13.16138 h 0.137583 v 0.513292 h -0.137583 v -0.214313 c -0.153458,-0.103187 -0.227542,-0.132291 -0.34925,-0.132291 -0.203729,0 -0.336021,0.124354 -0.336021,0.309562 0,0.153459 0.08731,0.240771 0.463021,0.455084 0.375708,0.216958 0.484187,0.34925 0.484187,0.595312 0.0026,0.309563 -0.256645,0.550333 -0.595312,0.550333 z m 1.248833,-0.150812 v -1.756833 h -0.224896 v -0.111125 h 0.71173 v 0.111125 h -0.224896 v 1.756833 h 0.224896 v 0.111125 h -0.71173 v -0.111125 z m 1.772709,0.111125 h -0.881063 v -0.111125 h 0.224896 v -1.759479 h -0.224896 v -0.111125 h 0.883708 c 0.53975,0 0.981605,0.4445 0.981605,0.986896 0,0.555625 -0.431271,0.994833 -0.98425,0.994833 z m -0.02646,-1.828271 h -0.365125 v 1.677458 h 0.359834 c 0.410104,0 0.722312,-0.362479 0.719666,-0.841375 0,-0.460375 -0.320146,-0.836083 -0.714375,-0.836083 z m 2.468563,1.828271 v -0.111125 h 0.24077 l -0.20902,-0.53975 -0.767292,-0.0026 -0.219604,0.53975 h 0.248708 v 0.113771 h -0.574146 v -0.113771 h 0.156105 l 0.78052,-1.928812 h 0.108479 l 0.751417,1.928812 h 0.171979 v 0.113771 z m -0.341313,-1.637771 -0.338666,0.844021 h 0.661458 z m 2.135188,1.637771 h -0.881063 v -0.111125 h 0.224896 v -1.759479 h -0.224896 v -0.111125 h 0.883708 c 0.53975,0 0.981605,0.4445 0.981605,0.986896 0,0.555625 -0.431271,0.994833 -0.98425,0.994833 z m -0.02646,-1.828271 h -0.365125 v 1.677458 h 0.359834 c 0.410104,0 0.722312,-0.362479 0.719666,-0.841375 0,-0.460375 -0.3175,-0.836083 -0.714375,-0.836083 z m 1.590146,1.717146 V 13.330714 H 50.25712 v -0.111125 h 1.198563 v -0.08467 h 0.137583 v 0.47625 h -0.134937 v -0.254 h -0.71173 v 0.767292 h 0.566209 v -0.224896 l 0.137583,-0.0026 v 0.590021 l -0.137583,0.0026 v -0.230188 h -0.566209 v 0.804333 h 0.738188 v -0.264583 h 0.137583 v 0.399521 h -1.36525 v -0.111125 z m -37.983583,9.482667 v -0.460375 h 0.997479 l -0.870479,-2.241021 -3.185583,-0.01323 -0.9101667,2.24102 h 1.0345208 v 0.473605 H 7.185602 v -0.473605 h 0.6482292 l 3.2358538,-8.006291 h 0.447146 l 3.1115,8.006291 h 0.709083 v 0.473605 z m -1.418166,-6.797146 -1.4075837,3.497791 h 2.7384377 z m 7.27075,6.958541 c -0.547688,0 -1.008063,-0.07408 -1.743605,-0.261937 v -8.255 h -1.082145 v -0.336021 l 1.793875,-0.486833 h 0.224895 v 8.60425 c 0.410105,0.161396 0.58473,0.211666 0.896938,0.211666 1.219729,0 2.079625,-1.058333 2.079625,-2.553229 0,-1.357312 -0.608542,-2.203979 -1.606021,-2.203979 H 18.00706 v -0.410104 c 0.635,-0.211667 0.933979,-0.261938 1.27,-0.261938 1.357313,0 2.315104,1.158875 2.315104,2.788709 -0.0053,1.907646 -1.285875,3.164416 -3.241145,3.164416 z m 4.915958,-0.62177 V 16.81263 h -0.931334 v -0.460375 h 4.96623 v -0.34925 h 0.5715 v 1.981729 H 27.3151 v -1.058333 h -2.950104 v 3.185583 h 2.352145 v -0.933979 l 0.5715,-0.01058 v 2.452687 l -0.5715,0.01058 V 20.6729 h -2.352145 v 3.336396 h 3.061229 v -1.095375 h 0.574146 v 1.656292 h -5.66473 v -0.460375 z m 12.438062,0.460375 c -0.735542,0 -0.870479,-0.07408 -1.283229,-0.735542 L 32.567081,20.884568 H 31.59606 v 3.225271 h 0.933979 v 0.460375 h -2.963333 v -0.460375 h 0.933979 V 16.81263 h -0.933979 v -0.460375 h 3.46075 c 1.2065,0 1.891771,0.336021 2.264833,1.108604 0.161396,0.336021 0.248708,0.709084 0.248708,1.108605 0,1.2065 -0.672041,1.979083 -1.867958,2.153708 l 1.793875,2.764896 c 0.298979,0.460375 0.497417,0.611187 0.809625,0.611187 h 0.486833 v 0.473604 h -1.058333 z m -2.936875,-7.643813 h -1.169458 v 3.386667 h 1.195917 c 0.947208,0 1.60602,-0.6985 1.60602,-1.717146 -0.0026,-1.071563 -0.587375,-1.669521 -1.632479,-1.669521 z m 8.143875,0.05027 v 7.133167 h 1.246188 v 0.460375 h -3.58775 v -0.460375 h 1.246187 v -7.133167 h -2.489729 v 0.994833 h -0.597958 v -1.9685 h 0.597958 v 0.34925 h 6.074833 v -0.34925 h 0.597959 v 1.9685 h -0.597959 v -0.994833 z m 7.918979,7.593542 v -0.460375 h 0.994833 l -0.870479,-2.241021 -3.188229,-0.01323 -0.910166,2.24102 h 1.03452 v 0.473605 h -2.378604 v -0.473605 h 0.648229 l 3.235854,-8.006291 h 0.447146 l 3.1115,8.006291 h 0.709084 v 0.473605 z m -1.420812,-6.797146 -1.407584,3.497791 h 2.73844 z M 30.670018,28.025672 h 0.0053 l 0.537104,-1.756833 h 0.296334 l 0.518583,1.751541 h 0.0079 l 0.515938,-1.751541 h 0.336021 l -0.693209,2.169583 h -0.3175 L 31.357935,26.68688 h -0.0079 l -0.529167,1.751542 h -0.3175 l -0.677333,-2.169583 h 0.33602 z m 3.233209,0 h 0.0053 l 0.537104,-1.756833 h 0.296334 l 0.515937,1.751541 h 0.01058 l 0.515937,-1.751541 h 0.336021 l -0.693208,2.169583 h -0.3175 L 34.591143,26.68688 h -0.0079 l -0.529167,1.751542 H 33.73393 l -0.674687,-2.169583 h 0.336021 z m 3.233208,0 h 0.0053 l 0.537104,-1.756833 h 0.296333 l 0.515938,1.751541 h 0.01058 l 0.515937,-1.751541 h 0.336021 L 38.66044,28.438422 H 38.340289 L 37.824352,26.68688 h -0.0079 l -0.529167,1.751542 h -0.3175 l -0.677333,-2.169583 h 0.336021 z m 2.714625,0.404812 H 39.50181 V 27.92513 h 0.34925 z m 0.595312,-0.669396 v -1.494895 h 0.322792 v 1.373187 c 0,0.383646 0.185208,0.550333 0.473604,0.550333 0.322792,0 0.608542,-0.246062 0.608542,-0.65352 v -1.27 h 0.3175 v 2.161645 H 41.859247 V 28.05213 h -0.0079 c -0.150813,0.283104 -0.420688,0.425979 -0.711729,0.425979 -0.460375,0.0026 -0.693209,-0.306916 -0.693209,-0.717021 z m 2.286,0.08731 c 0,-0.468313 0.42598,-0.650875 0.801688,-0.650875 h 0.616479 v -0.301625 c 0,-0.309563 -0.206375,-0.420688 -0.515937,-0.420688 -0.254,0 -0.513292,0.08996 -0.513292,0.336021 v 0.07408 h -0.293688 v -0.0635 c 0,-0.439209 0.41275,-0.597959 0.817563,-0.597959 0.433917,0 0.8255,0.150813 0.8255,0.637646 v 1.045104 c 0,0.119063 0.01587,0.439209 0.0291,0.526521 h -0.314854 c -0.0079,-0.0635 -0.01588,-0.248708 -0.02117,-0.306917 h -0.0079 c -0.179917,0.296334 -0.439209,0.351896 -0.706438,0.351896 -0.404812,-0.0026 -0.717021,-0.230187 -0.717021,-0.629708 z m 1.415521,-0.206375 v -0.206375 h -0.558271 c -0.275166,0 -0.537104,0.07408 -0.537104,0.396875 0,0.261937 0.224896,0.391583 0.486834,0.391583 0.428625,-0.0026 0.608541,-0.243416 0.608541,-0.582083 z m 1.235604,0.441854 h -0.01323 v 0.343958 h -0.304271 v -3.069166 h 0.3175 v 1.262062 h 0.01323 c 0.14552,-0.288395 0.433916,-0.39952 0.66675,-0.39952 0.460375,0 0.783166,0.293687 0.783166,0.769937 v 0.658812 c 0,0.582084 -0.410104,0.836084 -0.836083,0.836084 -0.264583,0 -0.531813,-0.156104 -0.627062,-0.402167 z m 1.135063,-0.404812 v -0.687917 c 0,-0.288396 -0.211667,-0.494771 -0.550333,-0.494771 -0.275167,0 -0.58473,0.240771 -0.58473,0.653521 v 0.447146 c 0,0.373062 0.275167,0.611187 0.592667,0.611187 0.264583,0.0026 0.542396,-0.15875 0.542396,-0.529166 z m 1.193271,0.751416 h -0.34925 V 27.92513 h 0.34925 z m 0.616479,-2.161645 h 0.309562 v 0.351895 h 0.0079 c 0.156104,-0.283104 0.447146,-0.39952 0.679979,-0.39952 0.460375,0 0.783167,0.288395 0.783167,0.767291 v 0.664104 c 0,0.582084 -0.399521,0.836084 -0.822855,0.836084 -0.269875,0 -0.534458,-0.156105 -0.627062,-0.399521 h -0.01323 v 1.180041 h -0.3175 z m 1.455208,1.410229 v -0.67998 c 0,-0.288395 -0.211667,-0.502708 -0.550333,-0.502708 -0.275167,0 -0.584729,0.227542 -0.584729,0.640292 v 0.460375 c 0,0.373062 0.275166,0.611187 0.595312,0.611187 0.259292,0.0026 0.53975,-0.15875 0.53975,-0.529166 z m 0.997479,0.298979 v -1.447271 h -0.375708 v -0.259292 h 0.375708 v -0.674687 h 0.3175 v 0.674687 h 0.597959 v 0.259292 h -0.597959 v 1.36525 c 0,0.214312 0.111125,0.280458 0.304271,0.280458 0.111125,0 0.211667,-0.01852 0.314854,-0.03969 v 0.275166 c -0.132291,0.04233 -0.309562,0.05556 -0.399521,0.05556 -0.283104,0 -0.537104,-0.119063 -0.537104,-0.489479 z" fill="currentColor" style="stroke-width:.26458"/>
        </symbol>
        <symbol id="bottom-right" viewBox="0 0 71 36">
            <path d="M 0.434798,36 C 23.95653,36 47.47827,36 71,36 71,24.05051 71,12.10103 71,0.15155 67.57401,5.88983 61.78361,9.78754 55.53812,11.89942 51.95341,13.28528 48.19774,14.05292 44.40266,14.57497 28.10616,17.50308 13.020998,25.36309 0.434798,36 Z" style="fill:currentColor"/>
        </symbol>
    </defs>
    <use id="used-bottom-right" href="#bottom-right" viewBox="0 0 71 36" style="color: #41228e"/>
</svg>