<?xml version="1.0" encoding="UTF-8"?>
<svg aria-role="none" xmlns="http://www.w3.org/2000/svg" width="235" height="61">
    <defs>
        <symbol id="logo" viewBox="0 0 235 61">
            <path d="M 227.2798,35.66171 H 184.44765 V 11.313716 h 42.83215 z" fill="currentColor" style="stroke-width:0.997861"/>
            <path d="M 227.3694,11.593811 h 7.22662 v 24.017884 h -7.22662 z m -50.15831,0 h 7.22662 V 35.66171 h -7.22662 z m 7.22662,24.047892 h 42.92172 v 7.352414 h -42.92172 z" fill="none" stroke="currentColor" stroke-miterlimit="3.8637" stroke-width="0.553816"/>
            <path d="M 91.098813,0.74025045 V 5.0616691 c 0,1.2103922 -0.427989,2.0006547 -1.36367,2.5108218 A 3.4042757,3.4211228 0 0 1 88.16239,7.9626195 c -1.632438,0 -2.84686,-1.0903611 -2.84686,-2.5708431 V 0.75025209 H 84.46945 V 0.33011106 h 2.687601 V 0.75025209 H 86.310934 V 5.0416621 c 0,1.3704487 0.79633,2.2707444 2.050529,2.2707444 1.284078,0 2.160038,-0.9203066 2.160038,-2.2807499 V 0.75025209 h -0.84608 V 0.33011106 h 2.269509 v 0.42014103 h -0.846117 z m 7.9732,7.18235485 -4.339945,-5.9819606 v 5.4417847 h 0.865987 V 7.8025666 H 93.318573 V 7.3824294 h 0.856052 V 1.1703893 L 93.866005,0.74025045 H 93.08962 V 0.3201132 h 1.632437 L 98.86293,6.0119806 V 0.74025045 H 97.996943 V 0.3201132 h 2.269507 V 0.74025045 H 99.420372 V 7.9226053 Z M 102.4464,7.3824294 V 0.74025045 h -0.84608 V 0.3201132 h 2.6876 V 0.74025045 H 103.4418 V 7.3824294 h 0.84612 v 0.4201372 h -2.6876 V 7.3824294 Z m 6.20137,0.6101988 -2.84686,-7.25237775 H 105.134 V 0.3201132 h 2.79707 v 0.42013725 h -1.05513 l 2.18989,5.56182335 2.16003,-5.56182335 h -0.73661 V 0.3201132 h 1.93109 v 0.42013725 h -0.56738 l -2.82695,7.25237775 z m 5.46477,-0.6101988 V 0.74025045 h -0.85606 V 0.3201132 h 4.50918 V -1.5224742e-8 h 0.51759 V 1.8005876 h -0.50762 V 0.84027447 h -2.67766 V 3.7412286 h 2.14013 V 2.8909487 l 0.51759,-0.00984 v 2.2307341 l -0.51759,0.00984 V 4.2513806 h -2.14013 v 3.0409961 h 2.77716 V 6.2920494 h 0.52757 v 1.5104983 h -5.14622 V 7.3824105 Z m 11.27789,0.4201372 c -0.66692,0 -0.78636,-0.070034 -1.1646,-0.67022 l -1.68222,-2.6908817 h -0.88594 v 2.9409645 h 0.84612 v 0.4201372 h -2.6876 V 7.3824294 h 0.84608 V 0.73024502 h -0.84608 V 0.31010777 h 3.13553 c 1.09494,0 1.71207,0.31011915 2.0505,1.01033273 a 2.2894252,2.3007551 0 0 1 0.22891,1.010329 c 0,1.1003627 -0.60723,1.8005914 -1.6922,1.9606442 l 1.62251,2.5208273 c 0.26858,0.4201372 0.44793,0.560183 0.7366,0.560183 h 0.43797 v 0.4301426 z m -2.66766,-6.96228456 h -1.05512 V 3.9212923 h 1.08496 c 0.85606,0 1.45331,-0.6402113 1.45331,-1.5605103 -0.0113,-0.980324 -0.53753,-1.52049996 -1.48315,-1.52049996 z m 6.97776,7.11233196 c -0.70673,0 -1.17457,-0.1500625 -1.74195,-0.5101672 v 0.4601514 h -0.52756 V 5.8619295 h 0.52756 v 0.9002957 c 0.68683,0.470153 0.99541,0.58019 1.49309,0.58019 0.90584,0 1.51303,-0.4801546 1.51303,-1.1903926 0,-0.6502129 -0.438,-1.120366 -1.66232,-1.7605735 -1.42343,-0.7502483 -1.91117,-1.3204329 -1.91117,-2.2407395 0,-1.120366 0.94561,-1.9606405 2.21972,-1.9606405 0.56738,0 0.98547,0.10005431 1.3438,0.32011322 V 0.10003537 h 0.51763 V 2.0406725 h -0.51763 V 1.230403 c -0.57731,-0.39012474 -0.85605,-0.50016177 -1.31392,-0.50016177 -0.76645,0 -1.26417,0.47015307 -1.26417,1.17038177 0,0.5801939 0.32864,0.9103012 1.74194,1.7205669 1.4135,0.8202712 1.82162,1.3204368 1.82162,2.2507374 0.0113,1.1703856 -0.96556,2.080683 -2.23967,2.0806867 z m 4.69832,-0.5701846 V 0.74025045 h -0.84612 V 0.3201132 h 2.67763 v 0.42013725 h -0.84608 V 7.3824294 h 0.84608 v 0.4201372 h -2.67763 V 7.3824294 Z m 6.66917,0.4201372 h -3.3147 V 7.3824294 h 0.84612 V 0.73024502 h -0.84612 V 0.31010777 h 3.32464 c 2.03066,0 3.69297,1.68055273 3.69297,3.73122693 0,2.1006863 -1.6225,3.7612319 -3.70291,3.7612319 z m -0.0993,-6.91226876 h -1.37369 V 7.2323782 h 1.35378 c 1.54287,0 2.71744,-1.3704487 2.70751,-3.1810456 0,-1.7405702 -1.20445,-3.16103476 -2.6876,-3.16103476 z M 150.2558,7.8025666 V 7.3824294 h 0.90584 l -0.7864,-2.0406688 -2.88663,-0.00984 -0.82621,2.0406688 h 0.93568 v 0.430154 h -2.16 V 7.3725981 h 0.58728 l 2.93643,-7.29239189 h 0.40811 l 2.82696,7.29239189 h 0.647 v 0.4301427 z m -1.28404,-6.1920329 -1.27415,3.1910472 h 2.48853 z m 8.03288,6.1920329 h -3.3147 V 7.3824294 h 0.84612 V 0.73024502 H 153.6899 V 0.31010777 h 3.32464 c 2.03062,0 3.69297,1.68055273 3.69297,3.73122693 0,2.1006863 -1.62254,3.7612319 -3.70291,3.7612319 z m -0.0994,-6.91226876 h -1.37368 V 7.2323782 h 1.35378 c 1.54287,0 2.71744,-1.3704487 2.70747,-3.1810456 0,-1.7405702 -1.19448,-3.16103476 -2.68757,-3.16103476 z M 162.8876,7.3824294 V 0.74025045 h -0.84608 V 0.3201132 h 4.50918 V -1.5224742e-8 h 0.51759 V 1.8005876 h -0.50766 V 0.84027447 H 163.883 V 3.7412286 h 2.13016 V 2.8909487 l 0.51763,-0.00984 v 2.2307341 l -0.51763,0.00984 V 4.2513806 H 163.883 v 3.0409961 h 2.77717 V 6.2920494 h 0.51763 v 1.5104983 h -5.13628 V 7.3824105 Z M 19.987657,43.234198 v -1.740574 h 3.752661 L 20.465471,33.020845 8.4808141,32.970836 5.0566427,41.443612 h 3.8920122 v 1.790593 H -3.9984902e-6 V 41.443612 H 2.4387364 L 14.612494,11.173681 h 1.682224 l 11.705954,30.269931 h 2.667656 v 1.790593 z M 14.652308,17.535761 9.3567737,30.760098 H 19.659168 Z m 27.35367,26.308632 c -2.060501,0 -3.792513,-0.280099 -6.559706,-0.990322 V 11.643827 H 31.375057 V 10.37341 L 38.123901,8.5328079 H 38.96998 V 41.063485 c 1.542874,0.610199 2.199853,0.80026 3.374422,0.80026 4.588806,0 7.823877,-4.001313 7.823877,-9.65317 0,-5.131681 -2.289454,-8.332733 -6.042115,-8.332733 h -3.414237 v -1.550509 c 2.388991,-0.800264 3.513773,-0.990326 4.777944,-0.990326 5.106434,0 8.709771,4.381436 8.709771,10.543464 -0.01889,7.212368 -4.837666,11.963922 -12.193664,11.963922 z M 60.500553,41.493624 V 13.90457 h -3.503838 v -1.740574 h 18.683713 v -1.320433 h 2.150065 v 7.492459 H 75.7298 V 14.334709 H 64.631075 v 12.043953 h 8.849122 v -3.53116 l 2.150066,-0.04001 v 9.273043 l -2.150066,0.04001 v -3.62119 h -8.849122 v 12.614142 h 11.516816 v -4.141363 h 2.16 v 6.26206 H 56.996337 V 41.49362 Z m 46.793827,1.740574 c -2.7672,0 -3.27485,-0.280099 -4.8277,-2.780916 L 95.488923,29.299623 h -3.653124 v 12.194001 h 3.513773 v 1.740574 H 84.201061 v -1.740574 h 3.513773 V 13.90457 h -3.513773 v -1.740574 h 13.019874 c 4.539015,0 7.117115,1.270417 8.520635,4.191374 0.60719,1.270421 0.93568,2.680884 0.93568,4.191379 0,4.561499 -2.5283,7.482457 -7.027547,8.142671 l 6.748847,10.453435 c 1.12478,1.74057 1.87136,2.310755 3.04593,2.310755 h 1.83155 v 1.790586 h -3.98162 z M 96.245439,14.334709 h -4.399667 v 12.804203 h 4.499204 c 3.563522,0 6.042074,-2.640866 6.042074,-6.492132 -0.0113,-4.051329 -2.20978,-6.312071 -6.141611,-6.312071 z m 30.638491,0.190038 v 26.968854 h 4.68834 v 1.740574 h -13.49765 v -1.740574 h 4.68834 v -26.96885 h -9.36675 v 3.761251 h -2.2496 v -7.442443 h 2.2496 v 1.320433 h 22.85443 v -1.320433 h 2.2496 v 7.442443 h -2.2496 V 14.52477 Z m 29.79237,28.709428 v -1.740574 h 3.74273 l -3.27489,-8.472779 -11.99459,-0.05001 -3.42417,8.472775 h 3.89201 v 1.790594 h -8.94866 v -1.790586 h 2.43871 l 12.17379,-30.269931 h 1.68223 l 11.70591,30.269931 h 2.6677 v 1.790593 z m -5.34532,-25.698436 -5.29553,13.224336 h 10.30243 z M 88.351906,56.298463 h 0.01889 l 2.020649,-6.642179 h 1.114847 l 1.950993,6.622171 h 0.03022 l 1.941057,-6.622171 h 1.264134 l -2.607934,8.202693 h -1.194477 l -1.950879,-6.622176 h -0.03022 l -1.990807,6.622176 h -1.19459 l -2.548211,-8.202693 h 1.264171 z m 12.163824,0 h 0.0189 l 2.02064,-6.642179 h 1.11485 l 1.94106,6.622171 h 0.0397 l 1.94102,-6.622171 h 1.26417 l -2.60797,8.202693 h -1.19447 l -1.951,-6.622176 h -0.0302 l -1.9908,6.622176 H 99.877107 L 97.33883,49.656284 h 1.264171 z m 12.16378,0 h 0.0189 l 2.02069,-6.642179 h 1.11484 l 1.94102,6.622171 h 0.0397 l 1.94106,-6.622171 h 1.26417 l -2.60798,8.202693 h -1.20456 l -1.94102,-6.622176 h -0.0302 l -1.9908,6.622176 h -1.19448 l -2.54825,-8.202693 h 1.26417 z m 10.21283,1.530501 h -1.31392 v -1.910625 h 1.31392 z m 2.23967,-2.530833 v -5.651849 h 1.21438 v 5.191702 c 0,1.450477 0.6968,2.080679 1.7818,2.080679 1.21439,0 2.28942,-0.930301 2.28942,-2.470808 v -4.801573 h 1.19448 v 8.172677 h -1.16464 v -1.420465 h -0.0302 c -0.56738,1.07035 -1.58269,1.61053 -2.67763,1.61053 -1.73201,0.0098 -2.60793,-1.16038 -2.60793,-2.710893 z m 8.60026,0.330108 c 0,-1.770583 1.6026,-2.460806 3.01609,-2.460806 h 2.3193 v -1.140377 c 0,-1.170386 -0.77642,-1.590523 -1.94106,-1.590523 -0.95559,0 -1.93108,0.340139 -1.93108,1.270417 v 0.280099 h -1.10488 v -0.240085 c 0,-1.660549 1.55281,-2.260746 3.07578,-2.260746 1.63247,0 3.10565,0.570188 3.10565,2.410794 v 3.951293 c 0,0.45015 0.0597,1.66055 0.10955,1.990657 h -1.18451 c -0.0302,-0.240085 -0.0597,-0.94031 -0.0797,-1.160384 h -0.0302 c -0.67689,1.12037 -1.65238,1.330438 -2.65776,1.330438 -1.52293,-0.0098 -2.69754,-0.870283 -2.69754,-2.380781 z m 5.32542,-0.780257 v -0.780254 h -2.10028 c -1.03522,0 -2.02069,0.280062 -2.02069,1.500493 0,0.990322 0.84608,1.480482 1.83155,1.480482 1.61253,-0.0098 2.28942,-0.920299 2.28942,-2.200721 z m 4.64852,1.670551 h -0.0499 v 1.300422 h -1.14473 V 46.21515 h 1.19452 v 4.771564 h 0.0499 c 0.54747,-1.090353 1.63244,-1.51049 2.5084,-1.51049 1.73201,0 2.94639,1.11036 2.94639,2.910952 v 2.490814 c 0,2.200726 -1.54287,3.161043 -3.14546,3.161043 -0.99541,0 -2.00078,-0.590196 -2.35912,-1.5205 z m 4.27029,-1.530502 v -2.600855 c 0,-1.090358 -0.79633,-1.870615 -2.07043,-1.870615 -1.03522,0 -2.19986,0.910298 -2.19986,2.470812 v 1.690554 c 0,1.410463 1.03522,2.310759 2.2297,2.310759 0.9954,0.0098 2.04059,-0.600197 2.04059,-2.000655 z m 4.48927,2.840929 h -1.31396 v -1.910613 h 1.31396 z m 2.31926,-8.17268 h 1.16464 v 1.330434 h 0.0302 c 0.58728,-1.07035 1.68222,-1.51049 2.55818,-1.51049 1.73201,0 2.9464,1.090353 2.9464,2.900946 v 2.510826 c 0,2.200725 -1.50306,3.161038 -3.09572,3.161038 -1.01531,0 -2.01072,-0.590195 -2.35908,-1.510494 h -0.0499 v 4.461461 h -1.19448 z m 5.47474,5.331751 v -2.570828 c 0,-1.090357 -0.79633,-1.900623 -2.07044,-1.900623 -1.03522,0 -2.19985,0.860282 -2.19985,2.420796 v 1.74057 c 0,1.410463 1.03522,2.310759 2.23967,2.310759 0.97549,0.0098 2.03062,-0.600197 2.03062,-2.000655 z m 3.75266,1.130372 v -5.471779 h -1.41346 V 49.6663 h 1.41346 v -2.550836 h 1.19448 V 49.6663 h 2.2496 v 0.980324 h -2.2496 v 5.161694 c 0,0.810265 0.41805,1.060344 1.14472,1.060344 0.41806,0 0.7963,-0.07003 1.18451,-0.150062 v 1.040337 c -0.49768,0.160057 -1.1646,0.210065 -1.50306,0.210065 -1.06506,0 -2.02065,-0.450149 -2.02065,-1.850603 z" fill="currentColor" style="stroke-width:0.997861"/>
        </symbol>
    </defs>
    <use id="used-logo" href="#logo" viewBox="0 0 235 61" style="color: #41228e"/>
</svg>